<?xml version="1.0" encoding="UTF-8" standalone="no"?>
<svg
   xmlns:dc="http://purl.org/dc/elements/1.1/"
   xmlns:cc="http://creativecommons.org/ns#"
   xmlns:rdf="http://www.w3.org/1999/02/22-rdf-syntax-ns#"
   xmlns:svg="http://www.w3.org/2000/svg"
   xmlns="http://www.w3.org/2000/svg"
   xmlns:sodipodi="http://sodipodi.sourceforge.net/DTD/sodipodi-0.dtd"
   xmlns:inkscape="http://www.inkscape.org/namespaces/inkscape"
   version="1.1"
   id="Capa_1"
   x="0px"
   y="0px"
   viewBox="0 0 512.001 512.001"
   xml:space="preserve"
   sodipodi:docname="job.svg"
   style="enable-background:new 0 0 512.001 512.001;"
   inkscape:version="1.0.1 (3bc2e813f5, 2020-09-07)"><metadata
   id="metadata121"><rdf:RDF><cc:Work
       rdf:about=""><dc:format>image/svg+xml</dc:format><dc:type
         rdf:resource="http://purl.org/dc/dcmitype/StillImage" /><dc:title /></cc:Work></rdf:RDF></metadata><defs
   id="defs119">















	
	
	
	

	
	
	
	
</defs><sodipodi:namedview
   pagecolor="#ffffff"
   bordercolor="#666666"
   borderopacity="1"
   objecttolerance="10"
   gridtolerance="10"
   guidetolerance="10"
   inkscape:pageopacity="0"
   inkscape:pageshadow="2"
   inkscape:window-width="1920"
   inkscape:window-height="1022"
   id="namedview117"
   showgrid="false"
   inkscape:zoom="1.6386687"
   inkscape:cx="251.71074"
   inkscape:cy="253.65261"
   inkscape:window-x="0"
   inkscape:window-y="28"
   inkscape:window-maximized="1"
   inkscape:current-layer="Capa_1"
   inkscape:document-rotation="0" />
<path
   style="fill:#0f9d58;fill-opacity:1;opacity:1"
   d="M119.945,168.136H21.103c-4.295,0-7.777-3.482-7.777-7.777v-21.819  c0-31.59,25.609-57.199,57.199-57.199l0,0c31.59,0,57.199,25.609,57.199,57.199v21.819  C127.722,164.655,124.241,168.136,119.945,168.136z"
   id="path2" />




<path
   style="fill:#f4b400;fill-opacity:1;opacity:1"
   d="M490.428,168.136h-98.842c-4.295,0-7.777-3.482-7.777-7.777v-21.819  c0-31.59,25.609-57.199,57.199-57.199l0,0c31.59,0,57.199,25.609,57.199,57.199v21.819  C498.205,164.655,494.723,168.136,490.428,168.136z"
   id="path12" />
<path
   style="fill:#db4437;fill-opacity:1;opacity:1"
   d="M119.945,473.665H21.103c-4.295,0-7.777-3.482-7.777-7.778v-21.819  c0-31.59,25.609-57.199,57.199-57.199l0,0c31.59,0,57.199,25.609,57.199,57.199v21.819  C127.722,470.182,124.241,473.665,119.945,473.665z"
   id="path14" />
<path
   style="fill:#4285f4;fill-opacity:1;opacity:1"
   d="M490.428,473.665h-98.842c-4.295,0-7.777-3.482-7.777-7.778v-21.819  c0-31.59,25.609-57.199,57.199-57.199l0,0c31.59,0,57.199,25.609,57.199,57.199v21.819  C498.205,470.182,494.723,473.665,490.428,473.665z"
   id="path16" />




<path
   style="fill:#fad393"
   d="m 70.03,93.905 c -20.438,0 -37.066,-16.628 -37.066,-37.067 0,-20.439 16.628,-37.067 37.066,-37.067 20.439,0 37.067,16.628 37.067,37.067 0,20.439 -16.628,37.067 -37.067,37.067 z"
   id="path26" /><path
   style="fill:#fad393"
   d="m 440.512,93.905 c -20.438,0 -37.066,-16.628 -37.066,-37.067 0,-20.439 16.628,-37.067 37.066,-37.067 20.439,0 37.067,16.628 37.067,37.067 0,20.439 -16.628,37.067 -37.067,37.067 z"
   id="path28" /><path
   style="fill:#fad393"
   d="m 70.03,399.434 c -20.438,0 -37.066,-16.629 -37.066,-37.067 0,-20.438 16.628,-37.067 37.066,-37.067 20.439,0 37.067,16.628 37.067,37.067 0,20.439 -16.628,37.067 -37.067,37.067 z"
   id="path30" /><path
   style="fill:#fad393"
   d="m 440.512,399.434 c -20.438,0 -37.066,-16.629 -37.066,-37.067 0,-20.438 16.628,-37.067 37.066,-37.067 20.439,0 37.067,16.628 37.067,37.067 0,20.439 -16.628,37.067 -37.067,37.067 z"
   id="path32" />

<path
   d="M131.87,50.172c1.42,0,2.858-0.364,4.174-1.127c7.999-4.643,16.351-8.859,24.823-12.533  c4.221-1.831,6.159-6.735,4.328-10.956c-1.83-4.22-6.735-6.158-10.955-4.328c-9.065,3.931-18.001,8.442-26.559,13.409  c-3.98,2.31-5.332,7.406-3.023,11.385C126.204,48.685,128.998,50.172,131.87,50.172z"
   id="path46"
   style="fill:#64b5f6;fill-opacity:1" />
<path
   d="M297.186,20.391c9.114,1.58,18.226,3.715,27.085,6.346c0.792,0.235,1.59,0.347,2.376,0.347c3.592,0,6.906-2.342,7.982-5.961  c1.311-4.41-1.203-9.047-5.613-10.356c-9.481-2.815-19.231-5.101-28.983-6.791c-4.529-0.785-8.845,2.251-9.63,6.784  C289.617,15.294,292.654,19.605,297.186,20.391z"
   id="path48"
   style="fill:#64b5f6;fill-opacity:1" />
<path
   d="M241.201,17.297c0.165,0,0.331-0.004,0.498-0.015c4.728-0.279,9.531-0.42,14.276-0.42c0.009,0,0.017,0,0.025,0  c4.509,0,9.064,0.127,13.539,0.377c4.617,0.263,8.525-3.259,8.781-7.852c0.255-4.593-3.259-8.525-7.852-8.781  c-4.783-0.267-9.651-0.403-14.466-0.403c-0.01,0-0.018,0-0.028,0c-5.069,0-10.202,0.15-15.254,0.449  c-4.592,0.271-8.096,4.213-7.825,8.805C233.154,13.883,236.825,17.297,241.201,17.297z"
   id="path50"
   style="fill:#64b5f6;fill-opacity:1" />
<path
   d="M495.002,190.482c-4.475,1.066-7.238,5.559-6.172,10.034c2.141,8.985,3.774,18.202,4.857,27.395  c0.499,4.238,4.097,7.357,8.261,7.357c0.326,0,0.654-0.019,0.985-0.058c4.568-0.538,7.836-4.677,7.298-9.246  c-1.157-9.834-2.905-19.695-5.195-29.308C503.968,192.179,499.478,189.413,495.002,190.482z"
   id="path52"
   style="fill:#64b5f6;fill-opacity:1" />
<path
   d="M480.976,338.065c-1.573,4.323,0.656,9.103,4.98,10.676c0.94,0.343,1.901,0.504,2.848,0.504  c3.403,0,6.597-2.101,7.828-5.484c3.387-9.304,6.255-18.906,8.53-28.54c1.056-4.477-1.717-8.964-6.194-10.02  c-4.471-1.055-8.964,1.714-10.021,6.194C486.821,320.398,484.14,329.371,480.976,338.065z"
   id="path54"
   style="fill:#64b5f6;fill-opacity:1" />
<path
   d="M350.441,36.215c8.491,3.65,16.862,7.845,24.884,12.467c1.312,0.755,2.74,1.114,4.152,1.114  c2.881,0,5.683-1.497,7.224-4.172c2.297-3.986,0.929-9.079-3.058-11.376c-8.582-4.946-17.539-9.433-26.624-13.338  c-4.229-1.822-9.126,0.136-10.942,4.363C344.261,29.499,346.215,34.397,350.441,36.215z"
   id="path56"
   style="fill:#64b5f6;fill-opacity:1" />
<path
   d="M13.084,305.461c-4.476,1.062-7.244,5.551-6.183,10.027c2.284,9.63,5.161,19.224,8.554,28.516  c1.233,3.379,4.426,5.475,7.825,5.475c0.948,0,1.914-0.163,2.856-0.508c4.321-1.577,6.546-6.359,4.968-10.681  c-3.169-8.682-5.859-17.646-7.993-26.645C22.049,307.168,17.569,304.4,13.084,305.461z"
   id="path58"
   style="fill:#64b5f6;fill-opacity:1" />
<path
   d="M184.595,27.312c0.794,0,1.602-0.114,2.402-0.355c8.847-2.659,17.953-4.824,27.064-6.434  c4.531-0.801,7.555-5.122,6.754-9.652c-0.801-4.531-5.118-7.553-9.652-6.754c-9.749,1.722-19.493,4.039-28.963,6.885  c-4.406,1.325-6.903,5.97-5.579,10.375C177.705,24.985,181.014,27.312,184.595,27.312z"
   id="path60"
   style="fill:#64b5f6;fill-opacity:1" />
<path
   d="M503.67,247.347c-4.601,0-8.329,3.729-8.329,8.329v0.527c0,9.278-0.537,18.627-1.595,27.788  c-0.528,4.57,2.748,8.703,7.317,9.231c0.326,0.038,0.647,0.056,0.968,0.056c4.172,0,7.773-3.129,8.264-7.373  c1.132-9.793,1.706-19.787,1.706-29.701v-0.527C511.999,251.076,508.27,247.347,503.67,247.347z"
   id="path62"
   style="fill:#64b5f6;fill-opacity:1" />
<path
   d="M297.687,491.927c-9.087,1.595-18.387,2.676-27.642,3.211c-4.592,0.266-8.1,4.204-7.834,8.796  c0.255,4.429,3.928,7.848,8.308,7.848c0.161,0,0.326-0.004,0.489-0.014c9.894-0.572,19.841-1.727,29.56-3.435  c4.531-0.796,7.56-5.113,6.763-9.645C306.537,494.159,302.216,491.13,297.687,491.927z"
   id="path64"
   style="fill:#64b5f6;fill-opacity:1" />
<path
   d="M242.205,495.153c-9.256-0.526-18.556-1.597-27.642-3.182c-4.54-0.793-8.847,2.242-9.639,6.773  c-0.791,4.532,2.242,8.847,6.773,9.638c9.72,1.696,19.666,2.842,29.564,3.404c0.16,0.009,0.32,0.013,0.48,0.013  c4.384,0,8.058-3.426,8.309-7.857C250.31,499.348,246.798,495.414,242.205,495.153z"
   id="path66"
   style="fill:#64b5f6;fill-opacity:1" />
<path
   d="M187.484,485.595c-8.86-2.642-17.661-5.84-26.159-9.505c-4.223-1.82-9.126,0.126-10.946,4.351  c-1.823,4.224,0.126,9.125,4.35,10.946c9.095,3.921,18.513,7.342,27.995,10.17c0.794,0.237,1.595,0.35,2.384,0.35  c3.588,0,6.901-2.338,7.98-5.951C194.401,491.549,191.893,486.91,187.484,485.595z"
   id="path68"
   style="fill:#64b5f6;fill-opacity:1" />
<path
   d="M9.002,235.996c0.323,0.037,0.642,0.055,0.959,0.055c4.176,0,7.779-3.134,8.264-7.382c1.053-9.197,2.657-18.419,4.769-27.41  c1.051-4.479-1.726-8.962-6.205-10.014c-4.478-1.055-8.963,1.725-10.015,6.205c-2.258,9.619-3.975,19.485-5.101,29.323  C1.149,231.344,4.431,235.473,9.002,235.996z"
   id="path70"
   style="fill:#64b5f6;fill-opacity:1" />
<path
   d="M350.898,475.996c-8.492,3.671-17.286,6.876-26.138,9.527c-4.407,1.32-6.909,5.962-5.59,10.369  c1.08,3.611,4.392,5.943,7.977,5.943c0.791,0,1.595-0.114,2.393-0.352c9.474-2.837,18.884-6.267,27.971-10.196  c4.222-1.826,6.166-6.729,4.339-10.951C360.024,476.113,355.123,474.17,350.898,475.996z"
   id="path72"
   style="fill:#64b5f6;fill-opacity:1" />
<path
   d="M10.974,293.483c4.57-0.533,7.841-4.669,7.308-9.239c-1.068-9.159-1.614-18.508-1.623-27.787  c-0.004-4.598-3.733-8.321-8.329-8.321c-0.002,0-0.005,0-0.009,0c-4.6,0.005-8.325,3.737-8.321,8.338  c0.01,9.915,0.594,19.908,1.736,29.7c0.495,4.242,4.094,7.365,8.262,7.365C10.32,293.539,10.647,293.521,10.974,293.483z"
   id="path74"
   style="fill:#64b5f6;fill-opacity:1" />




















<path
   d="m 256.00049,140.00214 c 25.38381,0 49.5299,8.11007 69.47893,23.09171 h -15.51984 v 11.80277 h 37.97736 v -37.97736 h -11.80277 v 19.51311 c -22.64085,-18.28877 -50.62913,-28.233 -80.13368,-28.233 -70.46958,0 -127.80111,57.33154 -127.80111,127.80112 h 11.80276 c 0,-63.96154 52.03681,-115.99835 115.99835,-115.99835 z"
   id="path6"
   style="stroke-width:0.786851;fill:#64b5f6;fill-opacity:1" /><path
   d="m 371.99884,256.00049 c 0,63.96154 -52.03681,115.99835 -115.99835,115.99835 -24.66384,0 -48.22688,-7.68518 -67.87061,-21.90593 h 15.4089 v -11.80277 h -37.97736 v 37.97736 h 11.80276 v -19.51626 c 22.38276,17.52553 49.82655,27.05036 78.63631,27.05036 70.47037,0 127.80111,-57.33074 127.80111,-127.80111 z"
   id="path8"
   style="stroke-width:0.786851;fill:#64b5f6;fill-opacity:1" /><path
   d="m 284.38184,206.97815 a 20.640982,20.640982 0 0 0 -20.64098,-20.64098 h -15.48074 a 20.640982,20.640982 0 0 0 -20.64098,20.64098 h 10.32049 a 10.320491,10.320491 0 0 1 10.32049,-10.32049 h 15.48074 a 10.320491,10.320491 0 0 1 10.32049,10.32049 z"
   fill="#b1712c"
   id="path2-3"
   style="stroke-width:0.322515" /><path
   d="m 181.17693,237.93963 v 77.40368 a 10.320491,10.320491 0 0 0 10.3205,10.32049 h 129.00613 a 10.320491,10.320491 0 0 0 10.32049,-10.32049 v -77.40368 z"
   fill="#a36522"
   id="path4"
   style="stroke-width:0.322515" /><path
   d="m 194.07755,263.74085 v 43.86209 a 5.1602455,5.1602455 0 0 0 5.16024,5.16025 h 113.5254 a 5.1602455,5.1602455 0 0 0 5.16025,-5.16025 v -43.86209 z"
   fill="#b1712c"
   id="path6-6"
   style="stroke-width:0.322515" /><path
   d="m 214.71853,279.22159 a 33.541595,33.541595 0 0 1 -33.5416,-33.5416 v -23.2211 a 5.1602455,5.1602455 0 0 1 5.16025,-5.16024 H 325.6638 a 5.1602455,5.1602455 0 0 1 5.16025,5.16024 v 23.2211 a 33.541595,33.541595 0 0 1 -33.54159,33.5416 z"
   fill="#c78640"
   id="path8-7"
   style="stroke-width:0.322515" /><path
   d="m 256.00049,240.51975 a 12.900614,12.900614 0 0 1 12.90061,12.90061 v 43.86209 h -25.80122 v -43.86209 a 12.900614,12.900614 0 0 1 12.90061,-12.90061 z"
   fill="#ffc431"
   id="path10"
   style="stroke-width:0.322515" /><path
   d="m 243.09988,261.16073 h 25.80122 v 10.32049 h -25.80122 z"
   fill="#ffb401"
   id="path12-5"
   style="stroke-width:0.322515" /><path
   d="m 258.58061,286.96196 h -5.16024 a 2.580125,2.580125 0 0 1 0,-5.16025 h 5.16024 a 2.580125,2.580125 0 0 1 0,5.16025 z"
   fill="#ffa100"
   id="path14-3"
   style="stroke-width:0.322515" /><path
   d="m 227.61915,206.97815 h 10.32049 v 10.32049 h -10.32049 z"
   id="path16-5"
   style="fill:#ffc431;stroke-width:0.322515" /><path
   d="m 274.06136,206.97815 h 10.32049 v 10.32049 h -10.32049 z"
   id="path18-6"
   style="fill:#ffc431;stroke-width:0.322515" /></svg>
