<?xml version="1.0" encoding="UTF-8" standalone="no"?>
<svg
   xmlns:dc="http://purl.org/dc/elements/1.1/"
   xmlns:cc="http://creativecommons.org/ns#"
   xmlns:rdf="http://www.w3.org/1999/02/22-rdf-syntax-ns#"
   xmlns:svg="http://www.w3.org/2000/svg"
   xmlns="http://www.w3.org/2000/svg"
   xmlns:sodipodi="http://sodipodi.sourceforge.net/DTD/sodipodi-0.dtd"
   xmlns:inkscape="http://www.inkscape.org/namespaces/inkscape"
   viewBox="0 0 52 46.925945"
   width="104"
   height="93.851891"
   version="1.1"
   id="svg16"
   sodipodi:docname="icons8-react-native (1).svg"
   inkscape:version="1.0.1 (3bc2e813f5, 2020-09-07)">
  <metadata
     id="metadata22">
    <rdf:RDF>
      <cc:Work
         rdf:about="">
        <dc:format>image/svg+xml</dc:format>
        <dc:type
           rdf:resource="http://purl.org/dc/dcmitype/StillImage" />
        <dc:title></dc:title>
      </cc:Work>
    </rdf:RDF>
  </metadata>
  <defs
     id="defs20">
    <linearGradient
       id="z3Csneif8Y165Giu6z2_4c"
       x1="19.378"
       x2="19.378"
       y1="26.035"
       y2="51.960999"
       gradientUnits="userSpaceOnUse"
       spreadMethod="reflect"
       gradientTransform="matrix(0.24507182,0,0,0.24507182,17.772228,15.108995)">
      <stop
         offset="0"
         stop-color="#6dc7ff"
         id="stop38" />
      <stop
         offset="1"
         stop-color="#e6abff"
         id="stop40" />
    </linearGradient>
    <linearGradient
       id="z3Csneif8Y165Giu6z2_4b"
       x1="32.424999"
       x2="32.424999"
       y1="4.5830002"
       y2="58.763"
       gradientUnits="userSpaceOnUse"
       spreadMethod="reflect"
       gradientTransform="matrix(0.24507182,0,0,0.24507182,17.772228,15.108995)">
      <stop
         offset="0"
         stop-color="#1a6dff"
         id="stop31" />
      <stop
         offset="1"
         stop-color="#c822ff"
         id="stop33" />
    </linearGradient>
    <linearGradient
       id="z3Csneif8Y165Giu6z2_4a"
       x1="38"
       x2="38"
       y1="4.5830002"
       y2="58.763"
       gradientUnits="userSpaceOnUse"
       spreadMethod="reflect"
       gradientTransform="matrix(0.24507182,0,0,0.24507182,17.772228,15.108995)">
      <stop
         offset="0"
         stop-color="#1a6dff"
         id="stop24" />
      <stop
         offset="1"
         stop-color="#c822ff"
         id="stop26" />
    </linearGradient>
  </defs>
  <sodipodi:namedview
     pagecolor="#ffffff"
     bordercolor="#666666"
     borderopacity="1"
     objecttolerance="10"
     gridtolerance="10"
     guidetolerance="10"
     inkscape:pageopacity="0"
     inkscape:pageshadow="2"
     inkscape:window-width="1920"
     inkscape:window-height="1022"
     id="namedview18"
     showgrid="false"
     fit-margin-top="0"
     fit-margin-left="0"
     fit-margin-right="0"
     fit-margin-bottom="0"
     inkscape:zoom="6.5546875"
     inkscape:cx="52"
     inkscape:cy="46.925888"
     inkscape:window-x="0"
     inkscape:window-y="28"
     inkscape:window-maximized="1"
     inkscape:current-layer="svg16" />
  <linearGradient
     id="9GkdZLxQa1XTDblOFwLcpa"
     x1="32"
     x2="32"
     y1="25.212999"
     y2="36.722"
     gradientUnits="userSpaceOnUse">
    <stop
       offset="0"
       stop-color="#6dc7ff"
       id="stop2" />
    <stop
       offset="1"
       stop-color="#e6abff"
       id="stop4" />
  </linearGradient>
  <linearGradient
     id="9GkdZLxQa1XTDblOFwLcpb"
     x1="32"
     x2="32"
     y1="7.4260001"
     y2="53.439999"
     gradientUnits="userSpaceOnUse"
     gradientTransform="translate(-6,-8.537056)">
    <stop
       offset="0"
       stop-color="#1a6dff"
       id="stop9" />
    <stop
       offset="1"
       stop-color="#c822ff"
       id="stop11" />
  </linearGradient>
  <path
     fill="url(#9GkdZLxQa1XTDblOFwLcpb)"
     d="m 52,23.462944 c 0,-3.758 -4.243,-7.017 -10.853,-8.992 0.221,-1.031 0.407,-2.045 0.524,-3.015 0.657,-5.483 -0.483,-9.323 -3.211,-10.81299997 -2.729,-1.489 -6.574,-0.372 -10.831,3.14599997 -0.544,0.449 -1.087,0.938 -1.629,1.45 -0.542,-0.513 -1.085,-1.001 -1.629,-1.45 C 20.114,0.27094403 16.267,-0.84505597 13.54,0.64294403 10.812,2.131944 9.672,5.971944 10.329,11.455944 c 0.116,0.971 0.303,1.984 0.524,3.015 -6.61,1.975 -10.853,5.234 -10.853,8.992 0,3.758 4.243,7.017 10.853,8.992 -0.221,1.031 -0.407,2.045 -0.524,3.015 -0.657,5.483 0.483,9.323 3.211,10.813 0.789,0.431 1.67,0.643 2.628,0.643 2.357,0 5.177,-1.287 8.203,-3.788 0.544,-0.449 1.087,-0.938 1.629,-1.45 0.542,0.513 1.085,1.001 1.629,1.45 3.026,2.501 5.846,3.788 8.203,3.788 0.958,0 1.84,-0.213 2.628,-0.643 2.728,-1.489 3.868,-5.329 3.211,-10.813 -0.116,-0.971 -0.303,-1.984 -0.524,-3.015 6.61,-1.975 10.853,-5.234 10.853,-8.992 z m -23.098,-18.134 c 3.53,-2.917 6.665,-3.987 8.599,-2.931 1.934,1.055 2.729,4.27 2.184,8.818 -0.105,0.879 -0.273,1.796 -0.469,2.729 -2.117,-0.519 -4.43,-0.915 -6.892,-1.166 -1.564,-2.275 -3.215,-4.351 -4.908,-6.132 0.494,-0.466 0.99,-0.908 1.486,-1.318 z m 4.997,22.447 c -0.853,1.562 -1.76,3.055 -2.702,4.474 -1.651,0.138 -3.386,0.213 -5.197,0.213 -1.811,0 -3.546,-0.075 -5.198,-0.213 -0.941,-1.42 -1.849,-2.912 -2.702,-4.474 -0.784,-1.435 -1.499,-2.878 -2.142,-4.313 0.643,-1.434 1.358,-2.877 2.142,-4.313 0.853,-1.562 1.76,-3.055 2.702,-4.474 1.652,-0.138 3.387,-0.213 5.198,-0.213 1.811,0 3.546,0.075 5.198,0.213 0.941,1.42 1.849,2.912 2.702,4.474 0.784,1.435 1.499,2.878 2.142,4.313 -0.643,1.434 -1.359,2.877 -2.143,4.313 z m 3.179,-1.826 c 0.68,1.739 1.238,3.444 1.676,5.096 -1.544,0.376 -3.21,0.694 -5.009,0.929 0.657,-1.05 1.3,-2.124 1.909,-3.241 0.507,-0.925 0.975,-1.855 1.424,-2.784 z M 26,38.865944 c -1.272,-1.341 -2.522,-2.863 -3.729,-4.513 1.216,0.071 2.459,0.11 3.729,0.11 1.27,0 2.513,-0.039 3.729,-0.11 -1.207,1.65 -2.457,3.172 -3.729,4.513 z m -7.746,-6.891 c -1.799,-0.235 -3.465,-0.553 -5.009,-0.929 0.438,-1.652 0.996,-3.358 1.676,-5.096 0.45,0.93 0.918,1.859 1.423,2.785 0.61,1.116 1.253,2.19 1.91,3.24 z m -3.332,-10.999 c -0.68,-1.739 -1.238,-3.445 -1.676,-5.096 1.544,-0.376 3.21,-0.694 5.009,-0.929 -0.657,1.05 -1.3,2.124 -1.909,3.241 -0.507,0.925 -0.975,1.855 -1.424,2.784 z M 26,8.059944 c 1.272,1.341 2.522,2.863 3.729,4.513 -1.216,-0.071 -2.459,-0.11 -3.729,-0.11 -1.27,0 -2.513,0.039 -3.729,0.11 1.207,-1.65 2.457,-3.172 3.729,-4.513 z m 9.655,10.132 c -0.609,-1.116 -1.252,-2.19 -1.909,-3.241 1.799,0.235 3.465,0.553 5.009,0.929 -0.438,1.652 -0.996,3.358 -1.676,5.096 -0.45,-0.929 -0.918,-1.859 -1.424,-2.784 z m -23.34,-6.975 c -0.546,-4.549 0.25,-7.764 2.184,-8.818 0.488,-0.267 1.053,-0.397 1.681,-0.397 1.86,0 4.278,1.147 6.918,3.328 0.496,0.41 0.993,0.852 1.488,1.319 -1.693,1.781 -3.345,3.856 -4.908,6.132 -2.463,0.251 -4.776,0.648 -6.892,1.166 -0.198,-0.934 -0.365,-1.851 -0.471,-2.73 z M 2,23.462944 c 0,-2.6 3.47,-5.303 9.317,-7.06 0.606,2.279 1.437,4.654 2.471,7.06 -1.034,2.407 -1.865,4.782 -2.471,7.06 -5.847,-1.757 -9.317,-4.46 -9.317,-7.06 z m 21.098,18.134 c -3.53,2.917 -6.662,3.989 -8.599,2.931 -1.934,-1.055 -2.729,-4.27 -2.184,-8.818 0.105,-0.879 0.273,-1.796 0.469,-2.729 2.117,0.519 4.43,0.915 6.892,1.166 1.564,2.275 3.215,4.351 4.908,6.132 -0.494,0.466 -0.99,0.908 -1.486,1.318 z m 16.587,-5.888 c 0.546,4.549 -0.25,7.764 -2.184,8.818 -1.934,1.059 -5.068,-0.014 -8.599,-2.931 -0.496,-0.41 -0.993,-0.852 -1.488,-1.319 1.693,-1.781 3.345,-3.856 4.908,-6.132 2.463,-0.251 4.776,-0.648 6.892,-1.166 0.198,0.934 0.365,1.851 0.471,2.73 z m 0.998,-5.186 c -0.606,-2.279 -1.437,-4.654 -2.471,-7.06 1.034,-2.407 1.865,-4.782 2.471,-7.06 5.847,1.757 9.317,4.46 9.317,7.06 0,2.6 -3.47,5.303 -9.317,7.06 z"
     id="path14"
     style="fill:url(#9GkdZLxQa1XTDblOFwLcpb)" />
  <path
     fill="url(#z3Csneif8Y165Giu6z2_4a)"
     d="m 28.048578,16.67721 c -0.07965,0.576164 -0.417847,1.043761 -0.588416,1.247905 -0.336239,0.403879 -0.841822,0.703602 -1.342504,0.813884 0.06078,-0.464901 0.329132,-0.920735 0.607043,-1.235898 0.32423,-0.366137 0.830059,-0.673947 1.323877,-0.825891 m 0.480097,-0.587928 c -0.760703,0.04877 -1.651049,0.501907 -2.170847,1.08861 -0.471272,0.534501 -0.862163,1.328289 -0.709973,2.096344 0.02108,7.26e-4 0.04215,9.93e-4 0.06347,9.93e-4 0.810697,0 1.639285,-0.452647 2.125507,-1.036409 0.466617,-0.558273 0.820501,-1.346669 0.691839,-2.149525 z"
     id="path29"
     style="fill:url(#z3Csneif8Y165Giu6z2_4a);stroke-width:0.245071" />
  <path
     fill="url(#z3Csneif8Y165Giu6z2_4b)"
     d="m 28.596559,20.256484 c 0.598956,0 1.220949,0.249729 1.741236,0.685956 -0.809962,0.618317 -1.292264,1.574586 -1.292264,2.621533 0,1.243495 0.692818,2.362247 1.768438,2.926893 -0.172775,0.366628 -0.373244,0.717815 -0.59822,1.047927 -0.487693,0.713159 -1.14277,1.532434 -1.887543,1.538561 h -0.01936 c -0.302419,0 -0.500927,-0.07646 -0.776143,-0.182333 -0.351678,-0.13528 -0.789377,-0.303645 -1.512583,-0.30732 l -0.04141,7.25e-4 -0.03945,-4.96e-4 c -0.718551,0.0034 -1.156249,0.17204 -1.507683,0.30732 -0.274969,0.105875 -0.473722,0.182333 -0.776141,0.182333 h -0.02059 c -0.743549,-0.0061 -1.398626,-0.825402 -1.885829,-1.53807 -1.544932,-2.267406 -1.546402,-4.723514 -0.762907,-5.88393 0.572242,-0.849663 1.507191,-1.39887 2.382098,-1.39887 0.470292,0 0.852849,0.116903 1.258198,0.240661 0.399467,0.12204 0.813148,0.248258 1.294469,0.248258 h 0.06127 0.06127 c 0.481321,0 0.895004,-0.126211 1.294961,-0.248503 0.405103,-0.123761 0.787906,-0.240661 1.258198,-0.240661 m 0,-0.490144 c -1.037388,0 -1.695897,0.489164 -2.553159,0.489164 -0.02304,0 -0.06127,0 -0.06127,0 0,0 -0.03824,0 -0.06127,0 -0.857262,0 -1.515769,-0.489164 -2.553157,-0.489164 -1.018274,0 -2.103207,0.597486 -2.788427,1.61527 -0.969016,1.435139 -0.803837,4.131911 0.764623,6.433625 0.560479,0.819765 1.309664,1.744175 2.28701,1.752018 0.0083,0 0.01642,2.45e-4 0.02451,2.45e-4 0.85138,0 1.117526,-0.483771 2.286274,-0.489409 7.26e-4,0 0.0017,0 0.0024,0 0.01324,0 0.025,7.26e-4 0.03798,7.26e-4 0.01297,0 0.02476,-7.26e-4 0.03798,-7.26e-4 7.27e-4,0 0.0017,0 0.0024,0 1.168748,0.0057 1.435141,0.489409 2.286276,0.489409 0.0081,0 0.01642,0 0.02451,-2.45e-4 0.977346,-0.0081 1.726531,-0.932253 2.28701,-1.752018 0.349718,-0.51318 0.625913,-1.046212 0.839126,-1.580469 -1.117527,-0.37398 -1.923813,-1.427298 -1.923813,-2.670793 0,-1.113606 0.647478,-2.073307 1.584878,-2.531101 -0.681577,-0.803836 -1.628535,-1.266532 -2.524027,-1.266532 z"
     id="path36"
     style="fill:url(#z3Csneif8Y165Giu6z2_4b);stroke-width:0.245071" />
  <path
     fill="url(#z3Csneif8Y165Giu6z2_4c)"
     d="m 23.250073,27.843172 c -0.215663,-0.212477 -0.448237,-0.500437 -0.691103,-0.855546 -0.705807,-1.036163 -1.110666,-2.239221 -1.110666,-3.301117 0,-0.862163 0.404369,-1.642471 1.138849,-2.197069 l 0.295312,0.391134 c -0.608758,0.459756 -0.944017,1.101109 -0.944017,1.805935 0,0.965828 0.373735,2.068161 1.025625,3.024922 0.224732,0.328887 0.436964,0.592338 0.63008,0.78276 z"
     id="path43"
     style="fill:url(#z3Csneif8Y165Giu6z2_4c);stroke-width:0.245071" />
</svg>
