<?xml version="1.0" encoding="UTF-8" standalone="no"?>
<svg
   xmlns:dc="http://purl.org/dc/elements/1.1/"
   xmlns:cc="http://creativecommons.org/ns#"
   xmlns:rdf="http://www.w3.org/1999/02/22-rdf-syntax-ns#"
   xmlns:svg="http://www.w3.org/2000/svg"
   xmlns="http://www.w3.org/2000/svg"
   xmlns:sodipodi="http://sodipodi.sourceforge.net/DTD/sodipodi-0.dtd"
   xmlns:inkscape="http://www.inkscape.org/namespaces/inkscape"
   id="Capa_1"
   enable-background="new 0 0 512 512"
   height="418.35251"
   viewBox="0 0 511.8255 418.3525"
   width="511.8255"
   version="1.1"
   sodipodi:docname="website.svg"
   inkscape:version="1.0.1 (3bc2e813f5, 2020-09-07)">
  <metadata
     id="metadata141">
    <rdf:RDF>
      <cc:Work
         rdf:about="">
        <dc:format>image/svg+xml</dc:format>
        <dc:type
           rdf:resource="http://purl.org/dc/dcmitype/StillImage" />
        <dc:title />
      </cc:Work>
    </rdf:RDF>
  </metadata>
  <defs
     id="defs139">
    <rect
       x="25.849121"
       y="257.22912"
       width="314.81913"
       height="128.52345"
       id="rect910" />
    <rect
       x="49.172153"
       y="293.715"
       width="208.15234"
       height="177.93854"
       id="rect1254" />
    <rect
       x="49.172153"
       y="293.715"
       width="208.15234"
       height="177.93854"
       id="rect1254-3" />
    <rect
       x="49.172153"
       y="293.715"
       width="208.15234"
       height="177.93854"
       id="rect147" />
  </defs>
  <sodipodi:namedview
     pagecolor="#ffffff"
     bordercolor="#666666"
     borderopacity="1"
     objecttolerance="10"
     gridtolerance="10"
     guidetolerance="10"
     inkscape:pageopacity="0.75294118"
     inkscape:pageshadow="2"
     inkscape:window-width="1920"
     inkscape:window-height="1022"
     id="namedview137"
     showgrid="false"
     inkscape:zoom="1.4182101"
     inkscape:cx="234.03791"
     inkscape:cy="186.76864"
     inkscape:window-x="0"
     inkscape:window-y="28"
     inkscape:window-maximized="1"
     inkscape:current-layer="Capa_1"
     fit-margin-top="0"
     fit-margin-left="0"
     fit-margin-right="0"
     fit-margin-bottom="0"
     inkscape:pagecheckerboard="true"
     inkscape:document-rotation="0" />
  <g
     id="g8"
     transform="matrix(1.0154668,0,0,0.80127982,-13.00784,-51.40464)"
     style="fill:#ffff00;stroke-width:1.1086" />
  <g
     id="g12"
     transform="translate(-6.38526,-54.67541)" />
  <g
     id="g48"
     transform="translate(-6.38526,-54.67541)" />
  <path
     d="m 119.19774,192.68159 c 0.002,0.002 0.005,0.004 0.008,0.005 z"
     id="path106" />
  <text
     xml:space="preserve"
     id="text1252"
     style="font-style:normal;font-weight:normal;font-size:40px;line-height:1.25;font-family:sans-serif;white-space:pre;shape-inside:url(#rect1254-3);fill:#000000;fill-opacity:1;stroke:none;"
     transform="translate(-6.38526,-54.67541)" />
  <rect
     style="opacity:1;fill:#1a1a1a;fill-opacity:1;stroke:none;stroke-width:5.5;stroke-linejoin:round"
     id="rect1243"
     width="505"
     height="412.2778"
     x="4.1997128"
     y="3.9504907"
     rx="16.628"
     ry="9.4830198" />
  <g
     id="g130"
     transform="translate(-19.102389,-11.101914)">
    <path
       d="m 41.293,42.138 c 0,4.971189 4.028812,9 9,9 4.971189,0 9,-4.028811 9,-9 0,-4.969988 -4.028811,-9 -9,-9 -4.971188,0 -9,4.028812 -9,9 z"
       id="path118"
       style="fill:#f36d5f;fill-opacity:1;stroke-width:1" />
    <path
       d="m 73.810001,42.138 c 0,4.971189 4.028811,9 9,9 4.971188,0 9,-4.028811 9,-9 0,-4.969988 -4.030012,-9 -9,-9 -4.969988,0 -9,4.028812 -9,9 z"
       id="path120"
       style="fill:#f9bf4d;fill-opacity:1;stroke-width:1" />
    <path
       d="m 106.327,42.138 c 0,4.971189 4.02881,9 9,9 4.96999,0 9,-4.028811 9,-9 0,-4.969988 -4.02881,-9 -9,-9 -4.96999,0 -9,4.028812 -9,9 z"
       id="path122"
       style="fill:#58c855;fill-opacity:1;stroke-width:1" />
  </g>
  <rect
     style="fill:#000000;fill-opacity:1;stroke:none;stroke-width:0.999999;stroke-linejoin:round"
     id="rect1104"
     width="504.99997"
     height="175.46523"
     x="4.1999998"
     y="59.654964" />
  <rect
     style="fill:#070000;fill-opacity:1;stroke:#ffffff;stroke-width:1.7;stroke-linejoin:round;stroke-opacity:1;stroke-miterlimit:4;stroke-dasharray:none"
     id="rect1061"
     width="124"
     height="124"
     x="376.79074"
     y="172.32314"
     rx="0"
     ry="0" />
  <g
     id="g1187"
     transform="translate(16.316033,15.9097)"
     style="stroke:#000000;stroke-opacity:1">
    <path
       style="fill:#0f6258;fill-opacity:1;stroke:#000000;stroke-width:1;stroke-opacity:1"
       d="m 452.7967,264.38086 h -59.15121 c -2.57031,0 -4.65409,-2.07606 -4.65409,-4.63685 v -13.00904 c 0,-18.83476 15.32551,-34.10349 34.23029,-34.10349 v 0 c 18.90478,0 34.23029,15.26873 34.23029,34.10349 v 13.00904 c -10e-4,2.56139 -2.08438,4.63685 -4.65528,4.63685 z"
       id="path2-3" />
    <path
       style="fill:#fad393;stroke:#000000;stroke-width:1;stroke-opacity:1"
       d="m 422.92546,220.12245 c -12.23096,0 -22.18185,-9.91403 -22.18185,-22.10028 0,-12.18625 9.95089,-22.10029 22.18185,-22.10029 12.23156,0 22.18245,9.91404 22.18245,22.10029 0,12.18625 -9.95089,22.10028 -22.18245,22.10028 z"
       id="path26" />
  </g>
  <g
     aria-label="Hi, 
I'm Mohamad Tarhini"
     id="text1622"
     style="font-style:normal;font-variant:normal;font-weight:bold;font-stretch:normal;font-size:29.3333px;line-height:1.25;font-family:Ouhod;-inkscape-font-specification:'Ouhod Bold';fill:#000000;fill-opacity:1;stroke:none">
    <path
       d="m 40.019389,162.61668 v 20.53331 h -4.751995 v -8.41865 h -9.327989 v 8.41865 H 21.18741 v -20.53331 h 4.751995 v 8.09599 h 9.327989 v -8.09599 z"
       style="font-style:normal;font-variant:normal;font-weight:bold;font-stretch:normal;font-size:29.3333px;font-family:Montserrat;-inkscape-font-specification:'Montserrat Bold';fill:#ffffff"
       id="path867" />
    <path
       d="m 44.566011,167.36868 h 4.575995 v 15.78131 h -4.575995 z m 2.287998,-2.2 q -1.261332,0 -2.053331,-0.73333 -0.791999,-0.73333 -0.791999,-1.81867 0,-1.08533 0.791999,-1.81866 0.791999,-0.73333 2.053331,-0.73333 1.261332,0 2.053331,0.704 0.791999,0.704 0.791999,1.75999 0,1.144 -0.791999,1.90667 -0.791999,0.73333 -2.053331,0.73333 z"
       style="font-style:normal;font-variant:normal;font-weight:bold;font-stretch:normal;font-size:29.3333px;font-family:Montserrat;-inkscape-font-specification:'Montserrat Bold';fill:#ffffff"
       id="path869" />
    <path
       d="m 55.155294,177.694 q 1.231999,0 2.023998,0.792 0.791999,0.76267 0.791999,2.024 0,0.58666 -0.146667,1.17333 -0.146666,0.58666 -0.645332,1.76 l -1.671998,4.22399 h -2.903997 l 1.290665,-4.66399 Q 53.16063,182.70999 52.72063,182.06466 52.309964,181.39 52.309964,180.51 q 0,-1.26133 0.791999,-2.024 0.821332,-0.792 2.053331,-0.792 z"
       style="font-style:normal;font-variant:normal;font-weight:bold;font-stretch:normal;font-size:29.3333px;font-family:Montserrat;-inkscape-font-specification:'Montserrat Bold';fill:#ffffff"
       id="path871" />
    <path
       d="m 21.18741,200.28338 h 4.751995 v 20.53331 H 21.18741 Z"
       style="font-style:normal;font-variant:normal;font-weight:bold;font-stretch:normal;font-size:29.3333px;font-family:Montserrat;-inkscape-font-specification:'Montserrat Bold';fill:#ffffff"
       id="path873" />
    <path
       d="m 29.811374,200.28338 h 3.901329 l -0.322666,8.33066 h -3.28533 z"
       style="font-style:normal;font-variant:normal;font-weight:bold;font-stretch:normal;font-size:29.3333px;font-family:Montserrat;-inkscape-font-specification:'Montserrat Bold';fill:#ffffff"
       id="path875" />
    <path
       d="m 57.443329,204.80071 q 2.962663,0 4.693327,1.76 1.759998,1.73066 1.759998,5.22133 v 9.03465 H 59.32066 v -8.33065 q 0,-1.87733 -0.791999,-2.78667 -0.762666,-0.93866 -2.199998,-0.93866 -1.613331,0 -2.551997,1.056 Q 52.838,210.84337 52.838,212.8967 v 7.91999 h -4.575994 v -8.33065 q 0,-3.72533 -2.991997,-3.72533 -1.583998,0 -2.522664,1.056 -0.938665,1.02666 -0.938665,3.07999 v 7.91999 h -4.575995 v -15.78131 h 4.370662 v 1.81866 q 0.879999,-0.99733 2.141331,-1.52533 1.290665,-0.528 2.815996,-0.528 1.671998,0 3.02133,0.67467 1.349332,0.64533 2.170664,1.90666 0.967999,-1.232 2.434664,-1.90666 1.495999,-0.67467 3.255997,-0.67467 z"
       style="font-style:normal;font-variant:normal;font-weight:bold;font-stretch:normal;font-size:29.3333px;font-family:Montserrat;-inkscape-font-specification:'Montserrat Bold';fill:#ffffff"
       id="path877" />
    <path
       d="m 95.312584,220.81669 -0.02933,-12.31998 -6.042659,10.14932 H 87.09926 l -6.013327,-9.88532 v 12.05598 h -4.458661 v -20.53331 h 3.930662 l 7.685324,12.75999 7.567992,-12.75999 h 3.901329 l 0.05867,20.53331 z"
       style="font-style:normal;font-variant:normal;font-weight:bold;font-stretch:normal;font-size:29.3333px;font-family:Montserrat;-inkscape-font-specification:'Montserrat Bold';fill:#ffffff"
       id="path879" />
    <path
       d="m 111.82722,221.05136 q -2.49333,0 -4.48799,-1.02667 -1.96533,-1.05599 -3.08,-2.90399 -1.11466,-1.848 -1.11466,-4.19466 0,-2.34667 1.11466,-4.19467 1.11467,-1.84799 3.08,-2.87466 1.99466,-1.056 4.48799,-1.056 2.49333,0 4.45867,1.056 1.96533,1.02667 3.07999,2.87466 1.11467,1.848 1.11467,4.19467 0,2.34666 -1.11467,4.19466 -1.11466,1.848 -3.07999,2.90399 -1.96534,1.02667 -4.45867,1.02667 z m 0,-3.75466 q 1.76,0 2.87467,-1.17333 1.144,-1.20267 1.144,-3.19733 0,-1.99467 -1.144,-3.168 -1.11467,-1.20267 -2.87467,-1.20267 -1.75999,0 -2.90399,1.20267 -1.144,1.17333 -1.144,3.168 0,1.99466 1.144,3.19733 1.144,1.17333 2.90399,1.17333 z"
       style="font-style:normal;font-variant:normal;font-weight:bold;font-stretch:normal;font-size:29.3333px;font-family:Montserrat;-inkscape-font-specification:'Montserrat Bold';fill:#ffffff"
       id="path881" />
    <path
       d="m 133.12317,204.80071 q 2.93333,0 4.72266,1.76 1.81866,1.76 1.81866,5.22133 v 9.03465 h -4.57599 v -8.33065 q 0,-1.87733 -0.82133,-2.78667 -0.82134,-0.93866 -2.376,-0.93866 -1.73066,0 -2.75733,1.08533 -1.02667,1.056 -1.02667,3.168 v 7.80265 h -4.57599 v -21.7653 h 4.57599 v 7.62665 q 0.90934,-0.90933 2.2,-1.37866 1.29067,-0.49867 2.816,-0.49867 z"
       style="font-style:normal;font-variant:normal;font-weight:bold;font-stretch:normal;font-size:29.3333px;font-family:Montserrat;-inkscape-font-specification:'Montserrat Bold';fill:#ffffff"
       id="path883" />
    <path
       d="m 150.16582,204.80071 q 3.66666,0 5.63199,1.76 1.96533,1.73066 1.96533,5.25066 v 9.00532 h -4.28266 v -1.96533 q -1.29067,2.2 -4.81066,2.2 -1.81867,0 -3.168,-0.616 -1.32,-0.616 -2.024,-1.70133 -0.704,-1.08533 -0.704,-2.464 0,-2.2 1.64267,-3.46133 1.672,-1.26133 5.13333,-1.26133 h 3.63733 q 0,-1.496 -0.90934,-2.288 -0.90933,-0.82133 -2.72799,-0.82133 -1.26134,0 -2.49333,0.41067 -1.20267,0.38133 -2.05334,1.056 l -1.64266,-3.19733 q 1.29067,-0.90934 3.08,-1.408 1.81866,-0.49867 3.72533,-0.49867 z m -0.352,13.17065 q 1.17333,0 2.08266,-0.528 0.90933,-0.55733 1.29067,-1.61333 v -1.61333 h -3.13867 q -2.81599,0 -2.81599,1.848 0,0.88 0.67466,1.408 0.704,0.49866 1.90667,0.49866 z"
       style="font-style:normal;font-variant:normal;font-weight:bold;font-stretch:normal;font-size:29.3333px;font-family:Montserrat;-inkscape-font-specification:'Montserrat Bold';fill:#ffffff"
       id="path885" />
    <path
       d="m 182.10974,204.80071 q 2.96266,0 4.69332,1.76 1.76,1.73066 1.76,5.22133 v 9.03465 h -4.57599 v -8.33065 q 0,-1.87733 -0.792,-2.78667 -0.76267,-0.93866 -2.2,-0.93866 -1.61333,0 -2.552,1.056 -0.93866,1.02666 -0.93866,3.07999 v 7.91999 h -4.576 v -8.33065 q 0,-3.72533 -2.99199,-3.72533 -1.584,0 -2.52267,1.056 -0.93866,1.02666 -0.93866,3.07999 v 7.91999 h -4.576 v -15.78131 h 4.37066 v 1.81866 q 0.88,-0.99733 2.14133,-1.52533 1.29067,-0.528 2.816,-0.528 1.672,0 3.02133,0.67467 1.34933,0.64533 2.17067,1.90666 0.96799,-1.232 2.43466,-1.90666 1.496,-0.67467 3.256,-0.67467 z"
       style="font-style:normal;font-variant:normal;font-weight:bold;font-stretch:normal;font-size:29.3333px;font-family:Montserrat;-inkscape-font-specification:'Montserrat Bold';fill:#ffffff"
       id="path887" />
    <path
       d="m 199.03505,204.80071 q 3.66666,0 5.63199,1.76 1.96533,1.73066 1.96533,5.25066 v 9.00532 h -4.28266 v -1.96533 q -1.29066,2.2 -4.81066,2.2 -1.81867,0 -3.168,-0.616 -1.32,-0.616 -2.02399,-1.70133 -0.704,-1.08533 -0.704,-2.464 0,-2.2 1.64266,-3.46133 1.672,-1.26133 5.13333,-1.26133 h 3.63733 q 0,-1.496 -0.90933,-2.288 -0.90934,-0.82133 -2.728,-0.82133 -1.26133,0 -2.49333,0.41067 -1.20267,0.38133 -2.05333,1.056 l -1.64267,-3.19733 q 1.29067,-0.90934 3.08,-1.408 1.81866,-0.49867 3.72533,-0.49867 z m -0.352,13.17065 q 1.17333,0 2.08266,-0.528 0.90933,-0.55733 1.29067,-1.61333 v -1.61333 h -3.13867 q -2.81599,0 -2.81599,1.848 0,0.88 0.67466,1.408 0.704,0.49866 1.90667,0.49866 z"
       style="font-style:normal;font-variant:normal;font-weight:bold;font-stretch:normal;font-size:29.3333px;font-family:Montserrat;-inkscape-font-specification:'Montserrat Bold';fill:#ffffff"
       id="path889" />
    <path
       d="m 227.01894,199.05139 v 21.7653 h -4.37067 v -1.81866 q -1.70133,2.05333 -4.92799,2.05333 -2.22933,0 -4.04799,-0.99733 -1.78934,-0.99733 -2.816,-2.84533 -1.02667,-1.848 -1.02667,-4.28266 0,-2.43467 1.02667,-4.28267 1.02666,-1.84799 2.816,-2.84533 1.81866,-0.99733 4.04799,-0.99733 3.02133,0 4.72266,1.90667 v -7.65599 z m -8.50666,18.24531 q 1.73066,0 2.87466,-1.17333 1.144,-1.20267 1.144,-3.19733 0,-1.99467 -1.144,-3.168 -1.144,-1.20267 -2.87466,-1.20267 -1.76,0 -2.904,1.20267 -1.144,1.17333 -1.144,3.168 0,1.99466 1.144,3.19733 1.144,1.17333 2.904,1.17333 z"
       style="font-style:normal;font-variant:normal;font-weight:bold;font-stretch:normal;font-size:29.3333px;font-family:Montserrat;-inkscape-font-specification:'Montserrat Bold';fill:#ffffff"
       id="path891" />
    <path
       d="m 244.1202,204.15538 h -6.57066 v -3.872 h 17.89331 v 3.872 h -6.57066 v 16.66131 h -4.75199 z"
       style="font-style:normal;font-variant:normal;font-weight:bold;font-stretch:normal;font-size:29.3333px;font-family:Montserrat;-inkscape-font-specification:'Montserrat Bold';fill:#ffffff"
       id="path893" />
    <path
       d="m 263.24545,204.80071 q 3.66666,0 5.63199,1.76 1.96534,1.73066 1.96534,5.25066 v 9.00532 h -4.28267 v -1.96533 q -1.29066,2.2 -4.81066,2.2 -1.81866,0 -3.16799,-0.616 -1.32,-0.616 -2.024,-1.70133 -0.704,-1.08533 -0.704,-2.464 0,-2.2 1.64266,-3.46133 1.672,-1.26133 5.13333,-1.26133 h 3.63733 q 0,-1.496 -0.90933,-2.288 -0.90933,-0.82133 -2.728,-0.82133 -1.26133,0 -2.49333,0.41067 -1.20266,0.38133 -2.05333,1.056 l -1.64266,-3.19733 q 1.29066,-0.90934 3.07999,-1.408 1.81867,-0.49867 3.72533,-0.49867 z m -0.352,13.17065 q 1.17333,0 2.08267,-0.528 0.90933,-0.55733 1.29066,-1.61333 v -1.61333 h -3.13866 q -2.816,0 -2.816,1.848 0,0.88 0.67467,1.408 0.704,0.49866 1.90666,0.49866 z"
       style="font-style:normal;font-variant:normal;font-weight:bold;font-stretch:normal;font-size:29.3333px;font-family:Montserrat;-inkscape-font-specification:'Montserrat Bold';fill:#ffffff"
       id="path895" />
    <path
       d="m 279.34939,207.11804 q 0.82133,-1.144 2.2,-1.73066 1.40799,-0.58667 3.22666,-0.58667 v 4.224 q -0.76267,-0.0587 -1.02667,-0.0587 -1.96533,0 -3.07999,1.11467 -1.11467,1.08533 -1.11467,3.28533 v 7.45065 h -4.57599 v -15.78131 h 4.37066 z"
       style="font-style:normal;font-variant:normal;font-weight:bold;font-stretch:normal;font-size:29.3333px;font-family:Montserrat;-inkscape-font-specification:'Montserrat Bold';fill:#ffffff"
       id="path897" />
    <path
       d="m 297.09598,204.80071 q 2.93333,0 4.72267,1.76 1.81866,1.76 1.81866,5.22133 v 9.03465 h -4.57599 v -8.33065 q 0,-1.87733 -0.82134,-2.78667 -0.82133,-0.93866 -2.37599,-0.93866 -1.73067,0 -2.75733,1.08533 -1.02667,1.056 -1.02667,3.168 v 7.80265 H 287.504 v -21.7653 h 4.57599 v 7.62665 q 0.90933,-0.90933 2.2,-1.37866 1.29066,-0.49867 2.81599,-0.49867 z"
       style="font-style:normal;font-variant:normal;font-weight:bold;font-stretch:normal;font-size:29.3333px;font-family:Montserrat;-inkscape-font-specification:'Montserrat Bold';fill:#ffffff"
       id="path899" />
    <path
       d="m 307.77331,205.03538 h 4.576 v 15.78131 h -4.576 z m 2.288,-2.2 q -1.26133,0 -2.05333,-0.73333 -0.792,-0.73333 -0.792,-1.81867 0,-1.08533 0.792,-1.81866 0.792,-0.73333 2.05333,-0.73333 1.26133,0 2.05333,0.704 0.792,0.704 0.792,1.75999 0,1.144 -0.792,1.90667 -0.792,0.73333 -2.05333,0.73333 z"
       style="font-style:normal;font-variant:normal;font-weight:bold;font-stretch:normal;font-size:29.3333px;font-family:Montserrat;-inkscape-font-specification:'Montserrat Bold';fill:#ffffff"
       id="path901" />
    <path
       d="m 326.19459,204.80071 q 2.93333,0 4.72266,1.76 1.81866,1.76 1.81866,5.22133 v 9.03465 h -4.57599 v -8.33065 q 0,-1.87733 -0.82133,-2.78667 -0.82134,-0.93866 -2.376,-0.93866 -1.73067,0 -2.75733,1.08533 -1.02667,1.056 -1.02667,3.168 v 7.80265 h -4.57599 v -15.78131 h 4.37066 v 1.848 q 0.90933,-0.99734 2.25866,-1.52534 1.34934,-0.55733 2.96267,-0.55733 z"
       style="font-style:normal;font-variant:normal;font-weight:bold;font-stretch:normal;font-size:29.3333px;font-family:Montserrat;-inkscape-font-specification:'Montserrat Bold';fill:#ffffff"
       id="path903" />
    <path
       d="m 336.87189,205.03538 h 4.57599 v 15.78131 h -4.57599 z m 2.28799,-2.2 q -1.26133,0 -2.05333,-0.73333 -0.792,-0.73333 -0.792,-1.81867 0,-1.08533 0.792,-1.81866 0.792,-0.73333 2.05333,-0.73333 1.26133,0 2.05333,0.704 0.792,0.704 0.792,1.75999 0,1.144 -0.792,1.90667 -0.792,0.73333 -2.05333,0.73333 z"
       style="font-style:normal;font-variant:normal;font-weight:bold;font-stretch:normal;font-size:29.3333px;font-family:Montserrat;-inkscape-font-specification:'Montserrat Bold';fill:#ffffff"
       id="path905" />
  </g>
  <g
     aria-label="......................................."
     transform="matrix(1.0563037,0,0,1,-8.6198829,-13)"
     id="text908"
     style="font-style:normal;font-variant:normal;font-weight:normal;font-stretch:normal;font-size:40px;line-height:1.05;font-family:'Noto Mono';-inkscape-font-specification:'Noto Mono';white-space:pre;shape-inside:url(#rect910);fill:#000000;fill-opacity:1;stroke:none;stroke-width:0.972983">
    <path
       d="m 37.841797,284.01628 q 2.96875,0 2.96875,3.24218 0,3.24219 -2.96875,3.24219 -2.949219,0 -2.949219,-3.24219 0,-3.24218 2.949219,-3.24218 z"
       style="font-style:normal;font-variant:normal;font-weight:normal;font-stretch:normal;font-family:'Noto Mono';-inkscape-font-specification:'Noto Mono';fill:#ffffff;stroke-width:0.972983"
       id="path1059" />
    <path
       d="m 61.845703,284.01628 q 2.96875,0 2.96875,3.24218 0,3.24219 -2.96875,3.24219 -2.949219,0 -2.949219,-3.24219 0,-3.24218 2.949219,-3.24218 z"
       style="font-style:normal;font-variant:normal;font-weight:normal;font-stretch:normal;font-family:'Noto Mono';-inkscape-font-specification:'Noto Mono';fill:#ffffff;stroke-width:0.972983"
       id="path1061" />
    <path
       d="m 85.849609,284.01628 q 2.96875,0 2.96875,3.24218 0,3.24219 -2.96875,3.24219 -2.949218,0 -2.949218,-3.24219 0,-3.24218 2.949218,-3.24218 z"
       style="font-style:normal;font-variant:normal;font-weight:normal;font-stretch:normal;font-family:'Noto Mono';-inkscape-font-specification:'Noto Mono';fill:#ffffff;stroke-width:0.972983"
       id="path1063" />
    <path
       d="m 109.85352,284.01628 q 2.96875,0 2.96875,3.24218 0,3.24219 -2.96875,3.24219 -2.94922,0 -2.94922,-3.24219 0,-3.24218 2.94922,-3.24218 z"
       style="font-style:normal;font-variant:normal;font-weight:normal;font-stretch:normal;font-family:'Noto Mono';-inkscape-font-specification:'Noto Mono';fill:#ffffff;stroke-width:0.972983"
       id="path1065" />
    <path
       d="m 133.85742,284.01628 q 2.96875,0 2.96875,3.24218 0,3.24219 -2.96875,3.24219 -2.94922,0 -2.94922,-3.24219 0,-3.24218 2.94922,-3.24218 z"
       style="font-style:normal;font-variant:normal;font-weight:normal;font-stretch:normal;font-family:'Noto Mono';-inkscape-font-specification:'Noto Mono';fill:#ffffff;stroke-width:0.972983"
       id="path1067" />
    <path
       d="m 157.86133,284.01628 q 2.96875,0 2.96875,3.24218 0,3.24219 -2.96875,3.24219 -2.94922,0 -2.94922,-3.24219 0,-3.24218 2.94922,-3.24218 z"
       style="font-style:normal;font-variant:normal;font-weight:normal;font-stretch:normal;font-family:'Noto Mono';-inkscape-font-specification:'Noto Mono';fill:#ffffff;stroke-width:0.972983"
       id="path1069" />
    <path
       d="m 181.86523,284.01628 q 2.96875,0 2.96875,3.24218 0,3.24219 -2.96875,3.24219 -2.94921,0 -2.94921,-3.24219 0,-3.24218 2.94921,-3.24218 z"
       style="font-style:normal;font-variant:normal;font-weight:normal;font-stretch:normal;font-family:'Noto Mono';-inkscape-font-specification:'Noto Mono';fill:#ffffff;stroke-width:0.972983"
       id="path1071" />
    <path
       d="m 205.86914,284.01628 q 2.96875,0 2.96875,3.24218 0,3.24219 -2.96875,3.24219 -2.94922,0 -2.94922,-3.24219 0,-3.24218 2.94922,-3.24218 z"
       style="font-style:normal;font-variant:normal;font-weight:normal;font-stretch:normal;font-family:'Noto Mono';-inkscape-font-specification:'Noto Mono';fill:#ffffff;stroke-width:0.972983"
       id="path1073" />
    <path
       d="m 229.87305,284.01628 q 2.96875,0 2.96875,3.24218 0,3.24219 -2.96875,3.24219 -2.94922,0 -2.94922,-3.24219 0,-3.24218 2.94922,-3.24218 z"
       style="font-style:normal;font-variant:normal;font-weight:normal;font-stretch:normal;font-family:'Noto Mono';-inkscape-font-specification:'Noto Mono';fill:#ffffff;stroke-width:0.972983"
       id="path1075" />
    <path
       d="m 253.87695,284.01628 q 2.96875,0 2.96875,3.24218 0,3.24219 -2.96875,3.24219 -2.94922,0 -2.94922,-3.24219 0,-3.24218 2.94922,-3.24218 z"
       style="font-style:normal;font-variant:normal;font-weight:normal;font-stretch:normal;font-family:'Noto Mono';-inkscape-font-specification:'Noto Mono';fill:#ffffff;stroke-width:0.972983"
       id="path1077" />
    <path
       d="m 277.88086,284.01628 q 2.96875,0 2.96875,3.24218 0,3.24219 -2.96875,3.24219 -2.94922,0 -2.94922,-3.24219 0,-3.24218 2.94922,-3.24218 z"
       style="font-style:normal;font-variant:normal;font-weight:normal;font-stretch:normal;font-family:'Noto Mono';-inkscape-font-specification:'Noto Mono';fill:#ffffff;stroke-width:0.972983"
       id="path1079" />
    <path
       d="m 301.88477,284.01628 q 2.96875,0 2.96875,3.24218 0,3.24219 -2.96875,3.24219 -2.94922,0 -2.94922,-3.24219 0,-3.24218 2.94922,-3.24218 z"
       style="font-style:normal;font-variant:normal;font-weight:normal;font-stretch:normal;font-family:'Noto Mono';-inkscape-font-specification:'Noto Mono';fill:#ffffff;stroke-width:0.972983"
       id="path1081" />
    <path
       d="m 325.88867,284.01628 q 2.96875,0 2.96875,3.24218 0,3.24219 -2.96875,3.24219 -2.94922,0 -2.94922,-3.24219 0,-3.24218 2.94922,-3.24218 z"
       style="font-style:normal;font-variant:normal;font-weight:normal;font-stretch:normal;font-family:'Noto Mono';-inkscape-font-specification:'Noto Mono';fill:#ffffff;stroke-width:0.972983"
       id="path1083" />
    <path
       d="m 37.841797,326.01628 q 2.96875,0 2.96875,3.24218 0,3.24219 -2.96875,3.24219 -2.949219,0 -2.949219,-3.24219 0,-3.24218 2.949219,-3.24218 z"
       style="font-style:normal;font-variant:normal;font-weight:normal;font-stretch:normal;font-family:'Noto Mono';-inkscape-font-specification:'Noto Mono';fill:#ffffff;stroke-width:0.972983"
       id="path1085" />
    <path
       d="m 61.845703,326.01628 q 2.96875,0 2.96875,3.24218 0,3.24219 -2.96875,3.24219 -2.949219,0 -2.949219,-3.24219 0,-3.24218 2.949219,-3.24218 z"
       style="font-style:normal;font-variant:normal;font-weight:normal;font-stretch:normal;font-family:'Noto Mono';-inkscape-font-specification:'Noto Mono';fill:#ffffff;stroke-width:0.972983"
       id="path1087" />
    <path
       d="m 85.849609,326.01628 q 2.96875,0 2.96875,3.24218 0,3.24219 -2.96875,3.24219 -2.949218,0 -2.949218,-3.24219 0,-3.24218 2.949218,-3.24218 z"
       style="font-style:normal;font-variant:normal;font-weight:normal;font-stretch:normal;font-family:'Noto Mono';-inkscape-font-specification:'Noto Mono';fill:#ffffff;stroke-width:0.972983"
       id="path1089" />
    <path
       d="m 109.85352,326.01628 q 2.96875,0 2.96875,3.24218 0,3.24219 -2.96875,3.24219 -2.94922,0 -2.94922,-3.24219 0,-3.24218 2.94922,-3.24218 z"
       style="font-style:normal;font-variant:normal;font-weight:normal;font-stretch:normal;font-family:'Noto Mono';-inkscape-font-specification:'Noto Mono';fill:#ffffff;stroke-width:0.972983"
       id="path1091" />
    <path
       d="m 133.85742,326.01628 q 2.96875,0 2.96875,3.24218 0,3.24219 -2.96875,3.24219 -2.94922,0 -2.94922,-3.24219 0,-3.24218 2.94922,-3.24218 z"
       style="font-style:normal;font-variant:normal;font-weight:normal;font-stretch:normal;font-family:'Noto Mono';-inkscape-font-specification:'Noto Mono';fill:#ffffff;stroke-width:0.972983"
       id="path1093" />
    <path
       d="m 157.86133,326.01628 q 2.96875,0 2.96875,3.24218 0,3.24219 -2.96875,3.24219 -2.94922,0 -2.94922,-3.24219 0,-3.24218 2.94922,-3.24218 z"
       style="font-style:normal;font-variant:normal;font-weight:normal;font-stretch:normal;font-family:'Noto Mono';-inkscape-font-specification:'Noto Mono';fill:#ffffff;stroke-width:0.972983"
       id="path1095" />
    <path
       d="m 181.86523,326.01628 q 2.96875,0 2.96875,3.24218 0,3.24219 -2.96875,3.24219 -2.94921,0 -2.94921,-3.24219 0,-3.24218 2.94921,-3.24218 z"
       style="font-style:normal;font-variant:normal;font-weight:normal;font-stretch:normal;font-family:'Noto Mono';-inkscape-font-specification:'Noto Mono';fill:#ffffff;stroke-width:0.972983"
       id="path1097" />
    <path
       d="m 205.86914,326.01628 q 2.96875,0 2.96875,3.24218 0,3.24219 -2.96875,3.24219 -2.94922,0 -2.94922,-3.24219 0,-3.24218 2.94922,-3.24218 z"
       style="font-style:normal;font-variant:normal;font-weight:normal;font-stretch:normal;font-family:'Noto Mono';-inkscape-font-specification:'Noto Mono';fill:#ffffff;stroke-width:0.972983"
       id="path1099" />
    <path
       d="m 229.87305,326.01628 q 2.96875,0 2.96875,3.24218 0,3.24219 -2.96875,3.24219 -2.94922,0 -2.94922,-3.24219 0,-3.24218 2.94922,-3.24218 z"
       style="font-style:normal;font-variant:normal;font-weight:normal;font-stretch:normal;font-family:'Noto Mono';-inkscape-font-specification:'Noto Mono';fill:#ffffff;stroke-width:0.972983"
       id="path1101" />
    <path
       d="m 253.87695,326.01628 q 2.96875,0 2.96875,3.24218 0,3.24219 -2.96875,3.24219 -2.94922,0 -2.94922,-3.24219 0,-3.24218 2.94922,-3.24218 z"
       style="font-style:normal;font-variant:normal;font-weight:normal;font-stretch:normal;font-family:'Noto Mono';-inkscape-font-specification:'Noto Mono';fill:#ffffff;stroke-width:0.972983"
       id="path1103" />
    <path
       d="m 277.88086,326.01628 q 2.96875,0 2.96875,3.24218 0,3.24219 -2.96875,3.24219 -2.94922,0 -2.94922,-3.24219 0,-3.24218 2.94922,-3.24218 z"
       style="font-style:normal;font-variant:normal;font-weight:normal;font-stretch:normal;font-family:'Noto Mono';-inkscape-font-specification:'Noto Mono';fill:#ffffff;stroke-width:0.972983"
       id="path1105" />
    <path
       d="m 301.88477,326.01628 q 2.96875,0 2.96875,3.24218 0,3.24219 -2.96875,3.24219 -2.94922,0 -2.94922,-3.24219 0,-3.24218 2.94922,-3.24218 z"
       style="font-style:normal;font-variant:normal;font-weight:normal;font-stretch:normal;font-family:'Noto Mono';-inkscape-font-specification:'Noto Mono';fill:#ffffff;stroke-width:0.972983"
       id="path1107" />
    <path
       d="m 325.88867,326.01628 q 2.96875,0 2.96875,3.24218 0,3.24219 -2.96875,3.24219 -2.94922,0 -2.94922,-3.24219 0,-3.24218 2.94922,-3.24218 z"
       style="font-style:normal;font-variant:normal;font-weight:normal;font-stretch:normal;font-family:'Noto Mono';-inkscape-font-specification:'Noto Mono';fill:#ffffff;stroke-width:0.972983"
       id="path1109" />
    <path
       d="m 37.841797,368.01628 q 2.96875,0 2.96875,3.24218 0,3.24219 -2.96875,3.24219 -2.949219,0 -2.949219,-3.24219 0,-3.24218 2.949219,-3.24218 z"
       style="font-style:normal;font-variant:normal;font-weight:normal;font-stretch:normal;font-family:'Noto Mono';-inkscape-font-specification:'Noto Mono';fill:#ffffff;stroke-width:0.972983"
       id="path1111" />
    <path
       d="m 61.845703,368.01628 q 2.96875,0 2.96875,3.24218 0,3.24219 -2.96875,3.24219 -2.949219,0 -2.949219,-3.24219 0,-3.24218 2.949219,-3.24218 z"
       style="font-style:normal;font-variant:normal;font-weight:normal;font-stretch:normal;font-family:'Noto Mono';-inkscape-font-specification:'Noto Mono';fill:#ffffff;stroke-width:0.972983"
       id="path1113" />
    <path
       d="m 85.849609,368.01628 q 2.96875,0 2.96875,3.24218 0,3.24219 -2.96875,3.24219 -2.949218,0 -2.949218,-3.24219 0,-3.24218 2.949218,-3.24218 z"
       style="font-style:normal;font-variant:normal;font-weight:normal;font-stretch:normal;font-family:'Noto Mono';-inkscape-font-specification:'Noto Mono';fill:#ffffff;stroke-width:0.972983"
       id="path1115" />
    <path
       d="m 109.85352,368.01628 q 2.96875,0 2.96875,3.24218 0,3.24219 -2.96875,3.24219 -2.94922,0 -2.94922,-3.24219 0,-3.24218 2.94922,-3.24218 z"
       style="font-style:normal;font-variant:normal;font-weight:normal;font-stretch:normal;font-family:'Noto Mono';-inkscape-font-specification:'Noto Mono';fill:#ffffff;stroke-width:0.972983"
       id="path1117" />
    <path
       d="m 133.85742,368.01628 q 2.96875,0 2.96875,3.24218 0,3.24219 -2.96875,3.24219 -2.94922,0 -2.94922,-3.24219 0,-3.24218 2.94922,-3.24218 z"
       style="font-style:normal;font-variant:normal;font-weight:normal;font-stretch:normal;font-family:'Noto Mono';-inkscape-font-specification:'Noto Mono';fill:#ffffff;stroke-width:0.972983"
       id="path1119" />
    <path
       d="m 157.86133,368.01628 q 2.96875,0 2.96875,3.24218 0,3.24219 -2.96875,3.24219 -2.94922,0 -2.94922,-3.24219 0,-3.24218 2.94922,-3.24218 z"
       style="font-style:normal;font-variant:normal;font-weight:normal;font-stretch:normal;font-family:'Noto Mono';-inkscape-font-specification:'Noto Mono';fill:#ffffff;stroke-width:0.972983"
       id="path1121" />
    <path
       d="m 181.86523,368.01628 q 2.96875,0 2.96875,3.24218 0,3.24219 -2.96875,3.24219 -2.94921,0 -2.94921,-3.24219 0,-3.24218 2.94921,-3.24218 z"
       style="font-style:normal;font-variant:normal;font-weight:normal;font-stretch:normal;font-family:'Noto Mono';-inkscape-font-specification:'Noto Mono';fill:#ffffff;stroke-width:0.972983"
       id="path1123" />
    <path
       d="m 205.86914,368.01628 q 2.96875,0 2.96875,3.24218 0,3.24219 -2.96875,3.24219 -2.94922,0 -2.94922,-3.24219 0,-3.24218 2.94922,-3.24218 z"
       style="font-style:normal;font-variant:normal;font-weight:normal;font-stretch:normal;font-family:'Noto Mono';-inkscape-font-specification:'Noto Mono';fill:#ffffff;stroke-width:0.972983"
       id="path1125" />
    <path
       d="m 229.87305,368.01628 q 2.96875,0 2.96875,3.24218 0,3.24219 -2.96875,3.24219 -2.94922,0 -2.94922,-3.24219 0,-3.24218 2.94922,-3.24218 z"
       style="font-style:normal;font-variant:normal;font-weight:normal;font-stretch:normal;font-family:'Noto Mono';-inkscape-font-specification:'Noto Mono';fill:#ffffff;stroke-width:0.972983"
       id="path1127" />
    <path
       d="m 253.87695,368.01628 q 2.96875,0 2.96875,3.24218 0,3.24219 -2.96875,3.24219 -2.94922,0 -2.94922,-3.24219 0,-3.24218 2.94922,-3.24218 z"
       style="font-style:normal;font-variant:normal;font-weight:normal;font-stretch:normal;font-family:'Noto Mono';-inkscape-font-specification:'Noto Mono';fill:#ffffff;stroke-width:0.972983"
       id="path1129" />
    <path
       d="m 277.88086,368.01628 q 2.96875,0 2.96875,3.24218 0,3.24219 -2.96875,3.24219 -2.94922,0 -2.94922,-3.24219 0,-3.24218 2.94922,-3.24218 z"
       style="font-style:normal;font-variant:normal;font-weight:normal;font-stretch:normal;font-family:'Noto Mono';-inkscape-font-specification:'Noto Mono';fill:#ffffff;stroke-width:0.972983"
       id="path1131" />
    <path
       d="m 301.88477,368.01628 q 2.96875,0 2.96875,3.24218 0,3.24219 -2.96875,3.24219 -2.94922,0 -2.94922,-3.24219 0,-3.24218 2.94922,-3.24218 z"
       style="font-style:normal;font-variant:normal;font-weight:normal;font-stretch:normal;font-family:'Noto Mono';-inkscape-font-specification:'Noto Mono';fill:#ffffff;stroke-width:0.972983"
       id="path1133" />
    <path
       d="m 325.88867,368.01628 q 2.96875,0 2.96875,3.24218 0,3.24219 -2.96875,3.24219 -2.94922,0 -2.94922,-3.24219 0,-3.24218 2.94922,-3.24218 z"
       style="font-style:normal;font-variant:normal;font-weight:normal;font-stretch:normal;font-family:'Noto Mono';-inkscape-font-specification:'Noto Mono';fill:#ffffff;stroke-width:0.972983"
       id="path1135" />
  </g>
</svg>
