<svg id="color" enable-background="new 0 0 24 24" height="128" viewBox="0 0 24 24" width="128" xmlns="http://www.w3.org/2000/svg"><path d="m19 12c0 2.16-.98 4.16-2.67 5.5-.69.54-1.14 1.25-1.28 2.01l-.05-.01h-6l-.07.01c-.14-.79-.55-1.48-1.14-1.92-2.18-1.65-3.2-4.35-2.64-7.07.55-2.65 2.7-4.81 5.35-5.36 2.11-.45 4.27.07 5.91 1.4 1.65 1.34 2.59 3.32 2.59 5.44z" fill="#ffffff"/><path d="m15.05 19.51c-.03.17-.05.34-.05.52v2.22c0 .96-.79 1.75-1.75 1.75h-2.5c-.84 0-1.75-.64-1.75-2.04v-1.77c0-.23-.02-.46-.07-.68l.07-.01h6z" fill="#607d8b"/></svg>